HIERARCHY
ROOT Hips
{
	OFFSET 0.000000 0.000000 0.000000
	CHANNELS 6 Xposition Yposition Zposition Zrotation Xrotation Yrotation
	JOINT Ab
	{
		OFFSET 0.000000 8.176430 0.000000
		CHANNELS 6 Xposition Yposition Zposition Zrotation Xrotation Yrotation
		JOINT Chest
		{
			OFFSET 0.000000 21.841286 0.000000
			CHANNELS 6 Xposition Yposition Zposition Zrotation Xrotation Yrotation
			JOINT LeftCollar
			{
				OFFSET 0.000000 21.841286 0.000000
				CHANNELS 6 Xposition Yposition Zposition Zrotation Xrotation Yrotation
				JOINT LeftShoulder
				{
					OFFSET 19.000000 0.000000 0.000000
					CHANNELS 6 Xposition Yposition Zposition Zrotation Xrotation Yrotation
					JOINT LeftElbow
					{
						OFFSET 25.320953 0.000000 0.000000
						CHANNELS 6 Xposition Yposition Zposition Zrotation Xrotation Yrotation
						JOINT LeftWrist
						{
							OFFSET 24.349754 0.000000 0.000000
							CHANNELS 6 Xposition Yposition Zposition Zrotation Xrotation Yrotation
							End Site
							{
								OFFSET 14.833336 0.000000 0.000000
							}
						}
					}
				}
			}
			JOINT Neck
			{
				OFFSET 0.000000 21.841286 0.000000
				CHANNELS 6 Xposition Yposition Zposition Zrotation Xrotation Yrotation
				JOINT Head
				{
					OFFSET 0.000000 10.877777 0.000000
					CHANNELS 6 Xposition Yposition Zposition Zrotation Xrotation Yrotation
					End Site
					{
						OFFSET 0.000000 16.811111 0.000000
					}
				}
			}
			JOINT RightCollar
			{
				OFFSET 0.000000 21.841286 0.000000
				CHANNELS 6 Xposition Yposition Zposition Zrotation Xrotation Yrotation
				JOINT RightShoulder
				{
					OFFSET -19.000000 0.000000 0.000000
					CHANNELS 6 Xposition Yposition Zposition Zrotation Xrotation Yrotation
					JOINT RightElbow
					{
						OFFSET -25.320953 0.000000 0.000000
						CHANNELS 6 Xposition Yposition Zposition Zrotation Xrotation Yrotation
						JOINT RightWrist
						{
							OFFSET -24.349754 0.000000 0.000000
							CHANNELS 6 Xposition Yposition Zposition Zrotation Xrotation Yrotation
							End Site
							{
								OFFSET -14.833336 0.000000 0.000000
							}
						}
					}
				}
			}
		}
	}
	JOINT LeftHip
	{
		OFFSET 11.866667 0.000000 0.000000
		CHANNELS 6 Xposition Yposition Zposition Zrotation Xrotation Yrotation
		JOINT LeftKnee
		{
			OFFSET 0.000000 -45.759548 0.000000
			CHANNELS 6 Xposition Yposition Zposition Zrotation Xrotation Yrotation
			JOINT LeftAnkle
			{
				OFFSET 0.000000 -46.552631 0.000000
				CHANNELS 6 Xposition Yposition Zposition Zrotation Xrotation Yrotation
				End Site
				{
					OFFSET 0.000000 -4.944443 16.811111
				}
			}
		}
	}
	JOINT RightHip
	{
		OFFSET -11.866667 0.000000 0.000000
		CHANNELS 6 Xposition Yposition Zposition Zrotation Xrotation Yrotation
		JOINT RightKnee
		{
			OFFSET 0.000000 -45.759548 0.000000
			CHANNELS 6 Xposition Yposition Zposition Zrotation Xrotation Yrotation
			JOINT RightAnkle
			{
				OFFSET 0.000000 -46.552631 0.000000
				CHANNELS 6 Xposition Yposition Zposition Zrotation Xrotation Yrotation
				End Site
				{
					OFFSET 0.000000 -4.944443 16.811111
				}
			}
		}
	}
}
MOTION
Frames: 6
Frame Time: 0.041667
26.846386 148.424866 -299.979736 -2.274238 6.976225 4.524900 -0.000001 8.176443 0.000046 0.402366 -8.786822 0.497676 0.000006 21.841305 -0.000032 3.647623 8.730516 0.189713 0.000021 21.841293 -0.000045 -8.608943 -0.293375 3.675112 19.000004 0.000037 -0.000027 -67.661404 52.978472 -1.629041 25.320944 0.000026 -0.000038 5.336128 -0.709432 -15.281396 24.349737 -0.000014 -0.000048 7.634809 3.559213 1.417489 0.000020 21.841293 -0.000045 3.670775 7.815364 -1.696064 0.000008 10.877808 -0.000032 -3.119070 -9.148572 -1.704007 0.000020 21.841293 -0.000045 13.593142 -0.244262 -2.010850 -18.999996 -0.000008 -0.000033 64.532645 12.186496 -0.004153 -25.320950 -0.000016 -0.000053 -5.598729 -0.708843 17.175860 -24.349758 -0.000004 0.000015 33.258524 55.428723 -22.744276 11.866667 -0.000004 0.000024 3.330526 -13.680862 -5.947107 0.000010 -45.759537 0.000017 -8.798522 58.455853 8.799938 -0.000000 -46.552635 -0.000036 -4.491225 0.098371 -1.141280 -11.866669 0.000023 0.000034 3.039229 -14.751462 4.238300 0.000007 -45.759533 0.000001 1.557311 11.779240 -0.671291 0.000007 -46.552620 0.000070 -1.950692 -5.382322 -4.391375 
26.459064 148.695465 -297.364227 -1.843711 6.944915 4.876827 0.000005 8.176470 -0.000034 0.159332 -8.586971 1.269268 0.000006 21.841297 0.000005 3.187710 8.810275 1.029312 0.000002 21.841305 -0.000028 -8.827961 -0.307557 3.734784 19.000008 0.000003 -0.000049 -67.802502 51.977074 -0.791408 25.320946 -0.000026 -0.000065 4.844458 -0.612195 -14.937644 24.349705 0.000032 0.000017 7.774135 5.076246 1.511649 0.000002 21.841305 -0.000028 3.370636 8.177353 -2.116290 0.000010 10.877808 -0.000040 -3.199687 -9.878997 -2.163833 0.000002 21.841305 -0.000028 13.059446 -0.245203 -2.035935 -18.999977 0.000027 -0.000022 63.613616 16.074806 4.225570 -25.320946 -0.000004 0.000006 -5.243566 -0.738801 18.903682 -24.349752 -0.000025 -0.000030 29.556080 54.110452 -18.510716 11.866673 0.000026 0.000009 2.896493 -18.854341 -6.096719 0.000008 -45.759533 0.000034 -11.431812 63.544030 12.164127 0.000001 -46.552624 0.000015 -4.536399 -1.441005 -2.219290 -11.866669 0.000003 -0.000003 2.916876 -12.520147 4.411187 0.000005 -45.759525 0.000016 1.623121 10.697914 -1.024234 0.000003 -46.552612 0.000044 -3.089436 -6.053231 -4.549604 
26.275776 148.855804 -295.429321 -1.420056 6.985864 5.003466 0.000007 8.176452 -0.000063 -0.048911 -8.454331 1.855033 0.000014 21.841318 0.000008 2.697347 8.870869 1.663330 0.000011 21.841320 0.000025 -8.942487 -0.286695 3.429917 19.000000 0.000063 -0.000007 -67.887081 50.961708 -0.282389 25.320917 -0.000005 -0.000038 4.388117 -0.521140 -14.523135 24.349718 0.000031 -0.000016 8.064105 6.086645 1.501087 0.000011 21.841320 0.000025 3.608492 8.345163 -2.567524 0.000008 10.877769 -0.000048 -3.519467 -10.505593 -2.639075 0.000011 21.841320 0.000025 12.633462 -0.256193 -2.538325 -18.999985 0.000050 -0.000046 62.577387 19.203244 7.357581 -25.320936 0.000001 0.000015 -5.425351 -0.900456 20.633390 -24.349710 -0.000006 -0.000040 25.364193 52.371418 -14.143602 11.866679 0.000017 -0.000038 2.207465 -22.346784 -6.557186 0.000006 -45.759514 0.000001 -13.204367 65.213055 14.068217 0.000013 -46.552620 -0.000012 -4.322086 -3.526441 -2.723482 -11.866658 0.000032 -0.000084 2.662028 -10.951290 4.254120 0.000009 -45.759552 -0.000008 1.640542 9.926578 -1.058534 0.000006 -46.552616 -0.000032 -3.782919 -6.455806 -4.508277 
26.174212 148.989502 -293.482849 -0.937269 7.076798 5.025286 0.000011 8.176433 0.000006 -0.252235 -8.360050 2.394646 0.000016 21.841318 -0.000015 2.157082 8.947633 2.256597 0.000011 21.841347 -0.000031 -9.089152 -0.295265 3.261422 19.000015 0.000013 -0.000030 -68.109786 49.793418 0.245343 25.320910 0.000017 -0.000017 4.040757 -0.467986 -14.073649 24.349712 0.000034 0.000017 8.388594 6.875198 1.466740 0.000011 21.841347 -0.000031 3.623910 8.484233 -2.854055 0.000011 10.877785 -0.000028 -3.669091 -11.135655 -2.950355 0.000011 21.841347 -0.000031 12.112710 -0.265655 -2.922356 -18.999990 0.000004 -0.000028 61.375527 21.945261 10.256731 -25.320938 0.000020 0.000016 -5.883047 -1.134135 22.648477 -24.349741 0.000024 -0.000015 20.915405 50.174518 -9.805644 11.866673 0.000017 0.000012 1.273825 -25.361512 -7.301029 0.000006 -45.759514 -0.000026 -14.179096 64.867577 14.969490 0.000005 -46.552631 -0.000007 -3.972003 -5.859402 -2.903819 -11.866654 0.000009 -0.000007 2.308933 -9.439449 3.994508 0.000005 -45.759544 -0.000002 1.637361 9.180026 -0.946557 0.000008 -46.552612 -0.000002 -4.336014 -6.782622 -4.461892 
26.139982 149.122971 -290.836517 -0.266328 7.268574 4.935598 0.000008 8.176455 0.000000 -0.480507 -8.305352 2.978758 0.000016 21.841316 -0.000014 1.369018 9.092046 2.918334 0.000015 21.841278 -0.000019 -9.270197 -0.277480 3.206316 19.000015 0.000015 -0.000028 -68.552676 48.283611 0.891074 25.320934 -0.000027 -0.000061 3.585548 -0.385783 -13.331319 24.349735 0.000001 -0.000020 8.894137 7.568640 1.320658 0.000015 21.841278 -0.000019 3.395011 8.523527 -3.030095 0.000021 10.877796 -0.000076 -3.694844 -11.881945 -3.166389 0.000015 21.841278 -0.000019 11.371167 -0.277905 -3.279531 -18.999979 0.000027 -0.000059 59.804972 24.518491 13.708050 -25.320936 -0.000004 -0.000013 -6.651495 -1.499320 25.534517 -24.349766 -0.000010 -0.000022 15.573598 46.985524 -5.017430 11.866680 0.000004 -0.000022 -0.192348 -28.514795 -8.585808 0.000006 -45.759476 0.000013 -13.547299 61.346956 14.191219 0.000004 -46.552647 -0.000024 -3.563320 -8.540707 -2.563567 -11.866661 0.000001 -0.000007 1.790028 -7.501742 3.754934 0.000008 -45.759525 0.000026 1.596848 8.254705 -0.645197 0.000007 -46.552620 0.000021 -4.954346 -7.134659 -4.655094 
26.168049 149.174347 -288.800262 0.196800 7.463213 4.810489 0.000010 8.176458 -0.000015 -0.623496 -8.320422 3.298795 0.000004 21.841309 -0.000013 0.739900 9.246718 3.291137 0.000018 21.841301 -0.000085 -9.282073 -0.258304 2.948324 19.000017 0.000025 -0.000027 -69.006036 47.459593 1.359459 25.320942 -0.000004 -0.000053 3.441951 -0.352425 -12.826348 24.349720 -0.000015 -0.000029 9.089302 7.884829 1.236851 0.000018 21.841301 -0.000085 3.540279 8.343873 -3.240171 0.000010 10.877789 -0.000055 -3.990145 -12.335749 -3.418399 0.000018 21.841301 -0.000085 10.920873 -0.309509 -3.797719 -18.999979 -0.000002 -0.000047 58.804124 25.611784 16.022142 -25.320946 -0.000020 -0.000026 -7.159435 -1.753381 27.631633 -24.349739 -0.000008 -0.000006 12.217723 44.686615 -2.286942 11.866676 0.000034 -0.000011 -1.301676 -30.185533 -9.605736 0.000008 -45.759529 0.000041 -11.807359 56.601385 12.399558 0.000007 -46.552643 -0.000014 -3.465196 -9.870923 -1.875013 -11.866658 0.000016 -0.000025 1.454490 -6.132719 3.793295 0.000006 -45.759537 0.000024 1.529866 7.685142 -0.320518 0.000017 -46.552620 0.000016 -5.430940 -7.383515 -5.151840 
